<?xml version="1.0" encoding="UTF-8"?>
<!DOCTYPE svg PUBLIC "-//W3C//DTD SVG 1.1//EN" "http://www.w3.org/Graphics/SVG/1.1/DTD/svg11.dtd">
<svg xmlns="http://www.w3.org/2000/svg" version="1.1" width="920px" height="275px" style="shape-rendering:geometricPrecision; text-rendering:geometricPrecision; image-rendering:optimizeQuality; fill-rule:evenodd; clip-rule:evenodd" xmlns:xlink="http://www.w3.org/1999/xlink">
<g><path style="opacity:0.954" fill="#ffffff" d="M 32.5,169.5 C 7.87708,151.203 -2.28959,126.536 2,95.5C 5.76399,75.8434 15.5973,60.0101 31.5,48C 50.7009,35.6894 71.3675,32.0227 93.5,37C 109.223,8.30655 133.556,-3.69345 166.5,1C 194.486,6.98705 211.986,23.8204 219,51.5C 224.093,76.2088 217.593,97.0421 199.5,114C 214.668,115.054 228.334,120.054 240.5,129C 270.065,153.039 279.565,183.539 269,220.5C 252.583,260.47 222.75,277.97 179.5,273C 148.717,267.357 127.884,249.857 117,220.5C 114.292,210.219 112.458,200.052 111.5,190C 113.075,184.783 114.409,179.45 115.5,174C 115.167,173.167 114.833,172.333 114.5,171.5C 86.6732,186.722 59.3398,186.055 32.5,169.5 Z M 164.5,34.5 C 168.095,36.1023 171.429,38.1023 174.5,40.5C 191.161,56.4449 192.827,73.4449 179.5,91.5C 173.928,96.4538 167.594,100.12 160.5,102.5C 155.584,103.611 150.584,103.778 145.5,103C 143.671,102.727 142.171,101.893 141,100.5C 140.601,100.728 140.435,101.062 140.5,101.5C 131.558,96.8922 124.558,90.2256 119.5,81.5C 113.885,60.1406 120.885,44.6406 140.5,35C 148.47,33.2075 156.47,33.0409 164.5,34.5 Z M 76.5,67.5 C 87.6173,69.6429 97.4506,74.6429 106,82.5C 107.094,84.0779 107.928,85.7446 108.5,87.5C 109.737,88.9649 110.737,90.6316 111.5,92.5C 111.737,95.6473 112.57,98.6473 114,101.5C 114.667,106.5 114.667,111.5 114,116.5C 112.25,119.246 111.25,122.246 111,125.5C 109.556,129.411 107.389,132.744 104.5,135.5C 90.6464,149.213 74.6464,152.213 56.5,144.5C 53.4307,142.119 50.0973,139.952 46.5,138C 45.1666,135.809 43.5,133.976 41.5,132.5C 35.6726,124.36 33.3392,115.36 34.5,105.5C 34.8391,94.9898 38.8391,86.1565 46.5,79C 55.3902,72.3537 65.3902,68.5203 76.5,67.5 Z M 215.5,150.5 C 218.736,153.797 222.403,156.63 226.5,159C 230.025,161.901 232.692,165.401 234.5,169.5C 239.748,176.753 242.081,184.919 241.5,194C 241.537,198.901 241.037,203.734 240,208.5C 237.678,213.636 235.178,218.636 232.5,223.5C 227.294,228.873 221.627,233.706 215.5,238C 212.28,239.352 208.947,240.186 205.5,240.5C 191.908,243.434 178.908,241.768 166.5,235.5C 159.392,230.059 153.725,223.392 149.5,215.5C 146.748,209.489 145.415,203.155 145.5,196.5C 145.047,195.542 144.381,194.708 143.5,194C 145.195,184.418 148.362,175.252 153,166.5C 155.872,163.963 158.372,161.13 160.5,158C 164.183,156.159 167.516,153.826 170.5,151C 175.887,148.404 181.553,146.904 187.5,146.5C 197.133,145.305 206.467,146.638 215.5,150.5 Z"/></g>
<g><path style="opacity:0.994" fill="#ffffff" d="M 160.5,12.5 C 164.4,14.0586 168.4,15.5586 172.5,17C 166.932,20.5597 161.932,24.893 157.5,30C 160.295,31.0468 162.628,32.5468 164.5,34.5C 156.47,33.0409 148.47,33.2075 140.5,35C 120.885,44.6406 113.885,60.1406 119.5,81.5C 118.141,84.8691 115.474,87.7025 111.5,90C 112.774,90.9772 112.774,91.8106 111.5,92.5C 110.737,90.6316 109.737,88.9649 108.5,87.5C 107.928,85.7446 107.094,84.0779 106,82.5C 97.4506,74.6429 87.6173,69.6429 76.5,67.5C 77.8816,66.1995 79.5483,65.3661 81.5,65C 80.8333,64.6667 80.1667,64.3333 79.5,64C 83.2988,61.2031 86.7988,58.0364 90,54.5C 90.49,53.2068 90.6567,51.8734 90.5,50.5C 93.7893,51.3739 97.1226,52.0405 100.5,52.5C 106.839,31.3316 120.839,18.1649 142.5,13C 148.491,12.5005 154.491,12.3338 160.5,12.5 Z"/></g>
<g><path style="opacity:0.975" fill="#ffffff" d="M 160.5,12.5 C 170.702,14.4068 180.035,18.4068 188.5,24.5C 188.414,25.4959 188.748,26.3292 189.5,27C 184.867,32.1451 179.867,36.6451 174.5,40.5C 171.429,38.1023 168.095,36.1023 164.5,34.5C 162.628,32.5468 160.295,31.0468 157.5,30C 161.932,24.893 166.932,20.5597 172.5,17C 168.4,15.5586 164.4,14.0586 160.5,12.5 Z"/></g>
<g><path style="opacity:0.977" fill="#ffffff" d="M 90.5,50.5 C 90.6567,51.8734 90.49,53.2068 90,54.5C 86.7988,58.0364 83.2988,61.2031 79.5,64C 80.1667,64.3333 80.8333,64.6667 81.5,65C 79.5483,65.3661 77.8816,66.1995 76.5,67.5C 65.3902,68.5203 55.3902,72.3537 46.5,79C 38.8391,86.1565 34.8391,94.9898 34.5,105.5C 31.2052,112.136 26.2052,118.636 19.5,125C 18.451,125.492 17.451,125.326 16.5,124.5C 14.9645,119.825 14.2978,114.991 14.5,110C 14.7544,103.824 15.0877,97.6572 15.5,91.5C 28.6395,56.7543 53.6395,43.0876 90.5,50.5 Z"/></g>
<g><path style="opacity:0.867" fill="#ffffff" d="M 398.5,170.5 C 390.48,178.463 380.646,182.463 369,182.5C 357.741,182.394 347.241,179.561 337.5,174C 333.254,170.645 330.754,166.478 330,161.5C 333.426,157.401 337.426,154.068 342,151.5C 347.204,155.004 352.704,158.171 358.5,161C 362.882,163.266 367.549,163.933 372.5,163C 384.598,158.408 388.432,149.908 384,137.5C 380.996,135.326 378.163,132.992 375.5,130.5C 365.727,126.447 356.394,121.614 347.5,116C 334.143,104.771 329.976,90.6044 335,73.5C 337.669,65.9052 342.502,60.0718 349.5,56C 364.816,49.665 379.816,50.3316 394.5,58C 397.63,60.128 400.463,62.628 403,65.5C 402.346,71.5295 399.18,76.0295 393.5,79C 391.5,79.6667 389.5,79.6667 387.5,79C 379.067,71.9874 369.733,70.6541 359.5,75C 352.841,82.2929 352.841,89.6262 359.5,97C 362.524,98.5134 365.191,100.513 367.5,103C 376.508,106.837 385.174,111.171 393.5,116C 410.032,132.895 411.699,151.061 398.5,170.5 Z"/></g>
<g><path style="opacity:0.973" fill="#ffffff" d="M 188.5,24.5 C 200.645,33.7848 207.312,46.1181 208.5,61.5C 208.663,63.8568 208.497,66.1902 208,68.5C 207.667,68.1667 207.333,67.8333 207,67.5C 199.324,75.176 191.491,83.0093 183.5,91C 182.207,91.49 180.873,91.6567 179.5,91.5C 192.827,73.4449 191.161,56.4449 174.5,40.5C 179.867,36.6451 184.867,32.1451 189.5,27C 188.748,26.3292 188.414,25.4959 188.5,24.5 Z"/></g>
<g><path style="opacity:1" fill="#ffffff" d="M 208.5,61.5 C 210.872,87.4978 200.539,106.664 177.5,119C 163.084,123.931 148.418,124.764 133.5,121.5C 136.659,120.927 139.992,120.76 143.5,121C 149.791,115.217 155.458,109.05 160.5,102.5C 167.594,100.12 173.928,96.4538 179.5,91.5C 180.873,91.6567 182.207,91.49 183.5,91C 191.491,83.0093 199.324,75.176 207,67.5C 207.333,67.8333 207.667,68.1667 208,68.5C 208.497,66.1902 208.663,63.8568 208.5,61.5 Z"/></g>
<g><path style="opacity:0.853" fill="#ffffff" d="M 568.5,73.5 C 596.499,71.05 614.666,83.05 623,109.5C 625.577,124.121 624.577,138.455 620,152.5C 609.44,173.032 592.606,181.866 569.5,179C 548.515,175.773 535.348,163.939 530,143.5C 526.47,126.112 528.47,109.445 536,93.5C 544.225,82.4125 555.058,75.7459 568.5,73.5 Z M 593.5,155.5 C 590.96,158.607 587.627,160.44 583.5,161C 561.164,163.674 549.497,153.674 548.5,131C 548.519,128.031 548.686,124.865 549,121.5C 549.932,99.0561 561.432,89.0561 583.5,91.5C 590.599,93.7621 596.099,98.0955 600,104.5C 605.966,119.414 605.966,134.08 600,148.5C 598.281,151.288 596.115,153.621 593.5,155.5 Z"/></g>
<g><path style="opacity:0.867" fill="#ffffff" d="M 429.5,74.5 C 434.179,74.3342 438.845,74.5008 443.5,75C 444.416,75.3742 445.25,75.8742 446,76.5C 447.052,80.4128 447.552,84.4128 447.5,88.5C 446.649,97.8268 446.483,107.16 447,116.5C 460.333,115.167 473.667,115.167 487,116.5C 487.333,103.167 487.667,89.8333 488,76.5C 488.5,76 489,75.5 489.5,75C 494.751,74.1963 499.918,74.363 505,75.5C 505.667,108.5 505.667,141.5 505,174.5C 504.5,175 504,175.5 503.5,176C 498.833,176.667 494.167,176.667 489.5,176C 489,175.5 488.5,175 488,174.5C 487.667,160.5 487.333,146.5 487,132.5C 473.667,133.833 460.333,133.833 447,132.5C 446.667,146.5 446.333,160.5 446,174.5C 445.5,175 445,175.5 444.5,176C 439.833,176.667 435.167,176.667 430.5,176C 430,175.5 429.5,175 429,174.5C 427.821,144.738 426.988,114.905 426.5,85C 426.808,81.2625 427.808,77.7625 429.5,74.5 Z"/></g>
<g><path style="opacity:0.845" fill="#ffffff" d="M 646.5,74.5 C 657.172,74.3335 667.839,74.5002 678.5,75C 683.552,75.7437 688.552,76.7437 693.5,78C 700.167,81.6667 706.833,85.3333 713.5,89C 728.125,106.671 731.625,126.504 724,148.5C 715.692,163.087 703.192,171.92 686.5,175C 672.967,176.727 659.467,176.894 646,175.5C 644.854,158.897 644.354,142.23 644.5,125.5C 644.667,109.833 644.833,94.1667 645,78.5C 645.41,77.0993 645.91,75.766 646.5,74.5 Z M 664.5,90.5 C 674.857,90.619 684.857,92.7857 694.5,97C 701.536,102.032 706.203,108.698 708.5,117C 708.5,123 708.5,129 708.5,135C 704.371,147.74 695.704,155.407 682.5,158C 675.864,158.952 669.197,159.452 662.5,159.5C 662.813,137.186 662.98,114.852 663,92.5C 663.717,91.9558 664.217,91.2891 664.5,90.5 Z"/></g>
<g><path style="opacity:0.837" fill="#ffffff" d="M 773.5,74.5 C 778.179,74.3342 782.845,74.5008 787.5,75C 788.416,75.3742 789.25,75.8742 790,76.5C 799.884,105.152 809.551,133.819 819,162.5C 819.834,165.669 820.668,168.836 821.5,172C 821.355,173.226 821.022,174.393 820.5,175.5C 815.082,176.897 809.749,176.731 804.5,175C 802.321,168.284 799.987,161.617 797.5,155C 786.152,154.168 774.819,154.334 763.5,155.5C 761.358,161.402 759.524,167.402 758,173.5C 757.167,174.333 756.333,175.167 755.5,176C 750.833,176.667 746.167,176.667 741.5,176C 740.874,175.25 740.374,174.416 740,173.5C 747.83,147.196 755.83,120.863 764,94.5C 766.603,89.4407 768.603,84.1074 770,78.5C 770.69,76.6498 771.856,75.3164 773.5,74.5 Z M 779.5,100.5 C 780.966,101.347 781.8,102.68 782,104.5C 785.25,115.423 788.417,126.423 791.5,137.5C 784.167,137.5 776.833,137.5 769.5,137.5C 771.639,128.25 774.473,119.25 778,110.5C 778.61,107.173 779.11,103.839 779.5,100.5 Z"/></g>
<g><path style="opacity:0.855" fill="#ffffff" d="M 844.5,74.5 C 849.179,74.3342 853.845,74.5008 858.5,75C 860.329,75.2735 861.829,76.1068 863,77.5C 876.197,99.8953 888.863,122.562 901,145.5C 901.333,122.5 901.667,99.5 902,76.5C 906.661,74.2741 911.494,73.9408 916.5,75.5C 917.251,76.376 917.751,77.376 918,78.5C 918.667,110.167 918.667,141.833 918,173.5C 917.626,174.416 917.126,175.25 916.5,176C 911.167,176.667 905.833,176.667 900.5,176C 899.069,175.535 897.903,174.701 897,173.5C 887.759,154.519 877.592,136.019 866.5,118C 864.52,113.049 862.353,108.215 860,103.5C 859.667,126.833 859.333,150.167 859,173.5C 858.5,174.667 857.667,175.5 856.5,176C 852.167,176.667 847.833,176.667 843.5,176C 842.009,173.903 841.009,171.57 840.5,169C 841.833,139.667 841.833,110.333 840.5,81C 840.895,78.1398 842.228,75.9732 844.5,74.5 Z"/></g>
<g><path style="opacity:1" fill="#ffffff" d="M 119.5,81.5 C 124.558,90.2256 131.558,96.8922 140.5,101.5C 141.36,103.816 141.86,106.149 142,108.5C 135.816,114.72 129.316,120.553 122.5,126C 115.513,134.986 107.847,143.319 99.5,151C 95.6929,152.14 93.1929,154.64 92,158.5C 89.2605,161.118 86.4272,163.618 83.5,166C 84.8333,167 84.8333,168 83.5,169C 76.5079,169.5 69.5079,169.666 62.5,169.5C 53.4596,167.921 45.4596,164.254 38.5,158.5C 39.8474,159.028 41.1807,159.195 42.5,159C 47.4425,154.49 51.6092,149.99 55,145.5C 56.1068,146.712 56.6068,146.379 56.5,144.5C 74.6464,152.213 90.6464,149.213 104.5,135.5C 107.389,132.744 109.556,129.411 111,125.5C 111.25,122.246 112.25,119.246 114,116.5C 114.667,111.5 114.667,106.5 114,101.5C 112.57,98.6473 111.737,95.6473 111.5,92.5C 112.774,91.8106 112.774,90.9772 111.5,90C 115.474,87.7025 118.141,84.8691 119.5,81.5 Z"/></g>
<g><path style="opacity:1" fill="#ffffff" d="M 160.5,102.5 C 155.458,109.05 149.791,115.217 143.5,121C 139.992,120.76 136.659,120.927 133.5,121.5C 132.129,128.907 129.629,135.907 126,142.5C 120.888,148.946 115.054,154.779 108.5,160C 100.936,163.616 93.2697,166.95 85.5,170C 77.6554,170.822 69.9887,170.656 62.5,169.5C 69.5079,169.666 76.5079,169.5 83.5,169C 84.8333,168 84.8333,167 83.5,166C 86.4272,163.618 89.2605,161.118 92,158.5C 93.1929,154.64 95.6929,152.14 99.5,151C 107.847,143.319 115.513,134.986 122.5,126C 129.316,120.553 135.816,114.72 142,108.5C 141.86,106.149 141.36,103.816 140.5,101.5C 140.435,101.062 140.601,100.728 141,100.5C 142.171,101.893 143.671,102.727 145.5,103C 150.584,103.778 155.584,103.611 160.5,102.5 Z"/></g>
<g><path style="opacity:0.978" fill="#ffffff" d="M 15.5,91.5 C 15.0877,97.6572 14.7544,103.824 14.5,110C 14.2978,114.991 14.9645,119.825 16.5,124.5C 17.451,125.326 18.451,125.492 19.5,125C 26.2052,118.636 31.2052,112.136 34.5,105.5C 33.3392,115.36 35.6726,124.36 41.5,132.5C 38.434,134.373 35.434,136.539 32.5,139C 29.8474,141.134 27.8474,143.634 26.5,146.5C 15.2544,132.914 10.7544,117.247 13,99.5C 13.546,96.6209 14.3794,93.9542 15.5,91.5 Z"/></g>
<g><path style="opacity:0.992" fill="#ffffff" d="M 177.5,126.5 C 187.233,126.109 196.9,126.609 206.5,128C 201.167,132 196.5,136.667 192.5,142C 193.833,142.333 195.167,142.667 196.5,143C 193.167,143.333 189.833,143.667 186.5,144C 186.167,144.333 185.833,144.667 185.5,145C 186.416,145.278 187.082,145.778 187.5,146.5C 181.553,146.904 175.887,148.404 170.5,151C 167.516,153.826 164.183,156.159 160.5,158C 158.372,161.13 155.872,163.963 153,166.5C 148.362,175.252 145.195,184.418 143.5,194C 144.381,194.708 145.047,195.542 145.5,196.5C 143.224,196.244 142.057,194.91 142,192.5C 138.138,196.502 133.304,201.169 127.5,206.5C 126.83,204.709 126.163,203.042 125.5,201.5C 122.616,168.473 136.282,144.64 166.5,130C 170.215,128.705 173.882,127.538 177.5,126.5 Z"/></g>
<g><path style="opacity:0.974" fill="#ffffff" d="M 177.5,126.5 C 186.991,125.342 196.658,125.175 206.5,126C 212.465,128.266 218.465,130.433 224.5,132.5C 224.33,133.822 224.663,134.989 225.5,136C 222.333,139.167 219.167,142.333 216,145.5C 215.873,146.777 216.373,147.943 217.5,149C 217.164,150.03 216.497,150.53 215.5,150.5C 206.467,146.638 197.133,145.305 187.5,146.5C 187.082,145.778 186.416,145.278 185.5,145C 185.833,144.667 186.167,144.333 186.5,144C 189.833,143.667 193.167,143.333 196.5,143C 195.167,142.667 193.833,142.333 192.5,142C 196.5,136.667 201.167,132 206.5,128C 196.9,126.609 187.233,126.109 177.5,126.5 Z"/></g>
<g><path style="opacity:0.97" fill="#ffffff" d="M 224.5,132.5 C 232.393,137.06 239.393,142.726 245.5,149.5C 246.35,151.494 246.85,153.494 247,155.5C 244.117,160.05 240.284,163.55 235.5,166C 236.8,167.579 236.466,168.745 234.5,169.5C 232.692,165.401 230.025,161.901 226.5,159C 222.403,156.63 218.736,153.797 215.5,150.5C 216.497,150.53 217.164,150.03 217.5,149C 216.373,147.943 215.873,146.777 216,145.5C 219.167,142.333 222.333,139.167 225.5,136C 224.663,134.989 224.33,133.822 224.5,132.5 Z"/></g>
<g><path style="opacity:0.981" fill="#ffffff" d="M 41.5,132.5 C 43.5,133.976 45.1666,135.809 46.5,138C 50.0973,139.952 53.4307,142.119 56.5,144.5C 56.6068,146.379 56.1068,146.712 55,145.5C 51.6092,149.99 47.4425,154.49 42.5,159C 41.1807,159.195 39.8474,159.028 38.5,158.5C 33.5,155.5 29.5,151.5 26.5,146.5C 27.8474,143.634 29.8474,141.134 32.5,139C 35.434,136.539 38.434,134.373 41.5,132.5 Z"/></g>
<g><path style="opacity:0.004" fill="#ffffff" d="M 32.5,169.5 C 31.8333,170.167 31.8333,170.167 32.5,169.5 Z"/></g>
<g><path style="opacity:0.004" fill="#ffffff" d="M 398.5,170.5 C 399.833,171.167 399.833,171.167 398.5,170.5 Z"/></g>
<g><path style="opacity:0.973" fill="#ffffff" d="M 245.5,149.5 C 257.575,163.395 262.908,179.729 261.5,198.5C 260.732,199.263 260.232,200.263 260,201.5C 259.667,201.167 259.333,200.833 259,200.5C 251.554,207.946 244.054,215.446 236.5,223C 235.054,224.298 233.721,224.465 232.5,223.5C 235.178,218.636 237.678,213.636 240,208.5C 241.037,203.734 241.537,198.901 241.5,194C 242.081,184.919 239.748,176.753 234.5,169.5C 236.466,168.745 236.8,167.579 235.5,166C 240.284,163.55 244.117,160.05 247,155.5C 246.85,153.494 246.35,151.494 245.5,149.5 Z"/></g>
<g><path style="opacity:0.991" fill="#ffffff" d="M 261.5,198.5 C 258.469,227.038 243.803,247.204 217.5,259C 203.02,263.939 188.353,264.606 173.5,261C 170.719,260.478 168.385,259.311 166.5,257.5C 171.26,258.456 175.927,259.622 180.5,261C 183.882,261.824 187.216,261.657 190.5,260.5C 195.597,254.901 200.93,249.401 206.5,244C 205.663,242.989 205.33,241.822 205.5,240.5C 208.947,240.186 212.28,239.352 215.5,238C 221.627,233.706 227.294,228.873 232.5,223.5C 233.721,224.465 235.054,224.298 236.5,223C 244.054,215.446 251.554,207.946 259,200.5C 259.333,200.833 259.667,201.167 260,201.5C 260.232,200.263 260.732,199.263 261.5,198.5 Z"/></g>
<g><path style="opacity:0.989" fill="#ffffff" d="M 145.5,196.5 C 145.415,203.155 146.748,209.489 149.5,215.5C 148.21,216.058 147.377,217.058 147,218.5C 146.577,217.044 145.744,216.544 144.5,217C 141.736,220.219 138.736,223.219 135.5,226C 134.552,226.483 133.552,226.649 132.5,226.5C 127.923,218.772 125.59,210.439 125.5,201.5C 126.163,203.042 126.83,204.709 127.5,206.5C 133.304,201.169 138.138,196.502 142,192.5C 142.057,194.91 143.224,196.244 145.5,196.5 Z"/></g>
<g><path style="opacity:0.96" fill="#ffffff" d="M 149.5,215.5 C 153.725,223.392 159.392,230.059 166.5,235.5C 166.271,237.433 165.438,239.1 164,240.5C 159.577,242.087 156.744,245.087 155.5,249.5C 152.962,248.957 150.628,247.957 148.5,246.5C 141.736,240.968 136.402,234.301 132.5,226.5C 133.552,226.649 134.552,226.483 135.5,226C 138.736,223.219 141.736,220.219 144.5,217C 145.744,216.544 146.577,217.044 147,218.5C 147.377,217.058 148.21,216.058 149.5,215.5 Z"/></g>
<g><path style="opacity:0.993" fill="#ffffff" d="M 166.5,235.5 C 178.908,241.768 191.908,243.434 205.5,240.5C 205.33,241.822 205.663,242.989 206.5,244C 200.93,249.401 195.597,254.901 190.5,260.5C 187.216,261.657 183.882,261.824 180.5,261C 175.927,259.622 171.26,258.456 166.5,257.5C 163.764,255.804 160.764,254.638 157.5,254C 154.06,251.958 151.06,249.458 148.5,246.5C 150.628,247.957 152.962,248.957 155.5,249.5C 156.744,245.087 159.577,242.087 164,240.5C 165.438,239.1 166.271,237.433 166.5,235.5 Z"/></g>
</svg>
