<?xml version="1.0" standalone="no"?>
<!DOCTYPE svg PUBLIC "-//W3C//DTD SVG 20010904//EN"
 "http://www.w3.org/TR/2001/REC-SVG-20010904/DTD/svg10.dtd">
<svg version="1.0" xmlns="http://www.w3.org/2000/svg"
 width="920.000000pt" height="272.000000pt" viewBox="0 0 920.000000 272.000000"
 preserveAspectRatio="xMidYMid meet">

<g transform="translate(0.000000,272.000000) scale(0.100000,-0.100000)"
fill="#000000" stroke="none">
<path d="M1410 2688 c-25 -5 -62 -11 -83 -15 -20 -3 -40 -9 -43 -14 -3 -5 -13
-9 -23 -9 -21 0 -105 -41 -135 -67 -12 -10 -38 -31 -59 -46 -46 -35 -136 -152
-153 -200 -4 -12 -12 -16 -23 -11 -45 18 -176 34 -204 24 -17 -5 -44 -10 -60
-10 -31 0 -47 -4 -147 -36 -115 -36 -230 -118 -311 -219 -52 -65 -99 -149 -99
-176 0 -10 -4 -21 -10 -24 -5 -3 -10 -24 -10 -45 0 -21 -4 -41 -9 -44 -15 -10
-22 -186 -11 -251 6 -33 14 -77 17 -98 3 -20 9 -40 14 -43 5 -3 9 -14 9 -24 0
-32 52 -119 119 -199 83 -99 222 -186 336 -210 33 -7 78 -17 101 -23 46 -11
176 -6 244 10 25 6 63 15 85 20 42 9 112 42 157 73 52 37 55 30 29 -81 -33
-137 -36 -239 -11 -303 4 -12 14 -49 21 -82 25 -118 78 -212 179 -319 113
-119 208 -175 371 -217 146 -38 249 -39 391 -3 122 30 167 51 269 121 143 99
259 263 289 408 37 180 41 240 22 335 -23 114 -30 146 -41 182 -16 51 -122
209 -173 258 -88 83 -265 190 -315 190 -9 0 -30 4 -47 10 -17 5 -48 12 -69 15
-21 3 -41 13 -44 21 -3 8 18 45 50 86 62 84 79 123 107 250 22 100 25 171 11
227 -5 20 -18 68 -27 106 -45 178 -219 359 -389 403 -22 6 -67 18 -101 26 -66
17 -153 19 -224 4z m276 -117 c66 -20 180 -90 226 -138 75 -80 122 -184 148
-329 9 -52 7 -74 -10 -149 -22 -93 -42 -144 -72 -184 -13 -17 -18 -19 -18 -8
0 9 5 19 10 22 6 3 10 19 10 36 0 22 -5 29 -20 29 -11 0 -20 5 -20 10 0 6 -8
10 -18 10 -26 0 -54 33 -46 54 4 9 1 16 -6 16 -8 0 -11 -9 -8 -25 4 -17 1 -25
-8 -25 -8 0 -14 -5 -14 -11 0 -15 -121 -134 -155 -152 -51 -26 -67 -31 -154
-41 l-85 -11 3 -65 c1 -36 7 -71 13 -77 6 -7 30 -13 54 -13 25 0 44 -5 44 -11
0 -12 -110 -7 -179 9 -56 13 -71 7 -71 -28 0 -33 -48 -150 -61 -150 -5 0 -9
-6 -9 -13 0 -8 -9 -22 -20 -32 -25 -23 -26 -12 0 23 10 15 20 45 22 67 3 35 0
40 -19 43 -13 2 -23 8 -23 13 0 5 -8 9 -18 9 -28 0 -40 19 -37 58 1 21 0 28
-2 17 -3 -11 -9 -24 -14 -30 -5 -5 -9 -17 -9 -27 0 -10 -4 -18 -10 -18 -5 0
-10 -6 -10 -13 0 -19 -100 -123 -140 -146 -47 -27 -88 -46 -131 -59 -44 -15
-205 -16 -214 -2 -3 6 -14 10 -23 9 -16 0 21 -21 60 -33 15 -4 18 -17 18 -71
0 -52 3 -65 16 -65 8 0 23 -7 32 -16 15 -16 13 -16 -33 -10 -200 27 -339 99
-438 224 -63 81 -94 152 -119 270 -21 103 -20 145 9 262 52 210 220 375 441
430 99 25 199 25 297 0 43 -11 83 -20 89 -20 6 0 17 19 24 42 39 125 187 270
319 313 136 44 245 46 379 6z m380 -1116 c112 -28 147 -43 219 -93 96 -66 186
-166 234 -259 48 -95 76 -263 61 -368 -16 -115 -25 -148 -61 -223 -33 -69 -49
-88 -49 -57 0 8 5 15 10 15 14 0 12 52 -4 73 -7 9 -20 17 -28 17 -8 0 -19 5
-24 10 -6 6 -25 7 -43 4 -25 -5 -31 -11 -28 -25 3 -11 0 -16 -8 -13 -6 3 -20
-8 -30 -23 -24 -36 -125 -132 -147 -139 -10 -3 -18 -10 -18 -15 0 -5 -9 -9
-19 -9 -11 0 -23 -5 -26 -10 -3 -6 -16 -10 -29 -10 -12 0 -27 -5 -33 -11 -12
-12 -43 -16 -165 -18 -51 0 -88 -5 -88 -11 0 -6 29 -10 67 -10 63 0 85 -12 26
-14 -27 -1 -28 -3 -31 -63 l-3 -63 36 0 c19 0 35 -5 35 -11 0 -26 -236 20
-330 64 -120 55 -252 192 -310 321 -104 233 -78 486 71 687 98 131 219 212
382 254 121 32 208 32 333 0z m-881 -205 c-10 -11 -20 -18 -23 -16 -5 6 21 35
32 36 5 0 1 -9 -9 -20z m-332 -187 c-7 -2 -19 -2 -25 0 -7 3 -2 5 12 5 14 0
19 -2 13 -5z m1573 -695 c-9 -12 -16 -17 -16 -10 0 14 23 42 29 37 1 -2 -4
-14 -13 -27z m-379 -224 c-3 -3 -12 -4 -19 -1 -8 3 -5 6 6 6 11 1 17 -2 13 -5z"/>
<path d="M1881 2034 c0 -11 3 -14 6 -6 3 7 2 16 -1 19 -3 4 -6 -2 -5 -13z"/>
<path d="M1418 1683 c7 -3 16 -2 19 1 4 3 -2 6 -13 5 -11 0 -14 -3 -6 -6z"/>
<path d="M2397 713 c-4 -3 -7 -23 -7 -44 0 -21 -4 -41 -10 -44 -5 -3 -10 -16
-10 -28 0 -35 18 -1 31 61 10 52 9 69 -4 55z"/>
</g>
</svg>
