<?xml version="1.0" standalone="no"?>
<!DOCTYPE svg PUBLIC "-//W3C//DTD SVG 20010904//EN"
 "http://www.w3.org/TR/2001/REC-SVG-20010904/DTD/svg10.dtd">
<svg version="1.0" xmlns="http://www.w3.org/2000/svg"
 width="920.000000pt" height="275.000000pt" viewBox="0 0 920.000000 275.000000"
 preserveAspectRatio="xMidYMid meet">

<g transform="translate(0.000000,275.000000) scale(0.100000,-0.100000)"
fill="#000000" stroke="none">
<path d="M1380 2715 c-30 -8 -93 -34 -140 -57 -103 -52 -208 -152 -258 -246
-25 -47 -38 -62 -50 -58 -9 3 -51 11 -92 17 -242 37 -518 -77 -665 -274 -202
-271 -193 -642 20 -900 217 -262 595 -332 919 -168 73 37 78 38 73 18 -36
-154 -39 -176 -34 -282 16 -347 254 -639 592 -725 107 -27 273 -27 381 0 306
78 535 327 584 633 15 93 8 255 -16 341 -36 136 -145 304 -257 395 -109 90
-264 155 -420 176 l-48 6 64 69 c71 77 119 164 143 260 23 91 15 281 -14 367
-64 183 -210 335 -390 406 -69 27 -91 30 -207 33 -93 3 -145 0 -185 -11z m285
-110 c135 -35 262 -123 330 -230 40 -62 103 -216 79 -192 -11 11 -164 -155
-164 -179 0 -36 -71 -164 -116 -208 -43 -43 -154 -106 -192 -109 -12 -1 -22
-5 -22 -9 0 -4 -6 -8 -14 -8 -7 0 -44 -30 -80 -66 -64 -63 -69 -66 -104 -60
l-37 5 -36 -92 c-19 -50 -40 -91 -46 -90 -5 1 -66 -54 -134 -123 -68 -69 -140
-134 -159 -144 -63 -32 -185 -53 -274 -47 -89 6 -200 40 -273 82 -81 48 -175
152 -221 246 -51 105 -64 160 -65 274 -1 255 147 472 388 571 61 24 86 29 191
32 99 3 134 0 190 -16 38 -11 75 -21 82 -23 8 -3 22 16 35 46 77 176 217 299
389 340 73 18 182 18 253 0z m439 -1135 c237 -60 430 -255 491 -495 25 -100
24 -104 -70 -196 -47 -46 -85 -91 -85 -101 0 -11 -3 -17 -7 -15 -5 3 -9 -5 -9
-17 -1 -12 -23 -56 -49 -99 -65 -108 -177 -200 -275 -228 -35 -9 -65 -32 -135
-101 -101 -99 -101 -99 -211 -70 -190 51 -347 177 -432 347 -59 121 -67 157
-66 315 0 133 3 151 28 218 84 223 258 384 478 442 100 26 241 26 342 0z m513
-652 c-3 -8 -6 -5 -6 6 -1 11 2 17 5 13 3 -3 4 -12 1 -19z"/>
<path d="M3594 2206 c-101 -25 -176 -84 -216 -171 -19 -42 -23 -67 -23 -155 0
-95 3 -111 28 -162 39 -78 88 -118 252 -200 77 -38 155 -81 174 -95 71 -54 88
-160 38 -234 -38 -56 -71 -73 -146 -77 -84 -5 -128 8 -201 59 -31 22 -66 39
-78 39 -28 0 -102 -71 -102 -98 0 -55 122 -139 237 -162 31 -7 102 -10 157 -8
121 5 189 31 254 98 70 74 87 118 87 240 0 93 -3 111 -27 162 -40 86 -100 137
-246 212 -166 84 -209 116 -234 174 -19 41 -20 52 -9 92 22 80 78 120 171 120
56 0 95 -14 154 -54 21 -14 45 -26 53 -26 24 0 103 81 103 106 0 29 -38 65
-110 103 -94 50 -208 63 -316 37z"/>
<path d="M5661 1989 c-67 -13 -165 -63 -215 -110 -97 -88 -152 -257 -143 -434
12 -223 106 -375 277 -446 48 -21 72 -23 190 -24 131 0 137 1 200 31 82 39
133 83 181 156 101 157 109 428 19 608 -35 69 -108 144 -173 176 -91 47 -229
64 -336 43z m234 -166 c116 -61 172 -190 163 -374 -6 -123 -34 -196 -98 -260
-86 -85 -221 -102 -333 -42 -117 64 -185 275 -143 443 33 132 93 213 182 246
56 20 177 13 229 -13z"/>
<path d="M4304 1973 c-15 -16 -16 -52 -10 -488 4 -258 11 -473 15 -477 9 -10
125 -13 140 -4 7 5 11 74 11 217 l0 209 213 -2 212 -3 3 -205 c1 -112 6 -208
11 -213 14 -14 131 -11 144 2 16 16 23 932 7 961 -9 17 -21 20 -74 20 -41 0
-68 -5 -75 -13 -7 -9 -12 -85 -13 -208 l-3 -194 -212 -3 -213 -2 0 198 c0 141
-3 201 -12 210 -19 19 -123 15 -144 -5z"/>
<path d="M6482 1982 c-10 -7 -13 -108 -12 -487 0 -264 4 -483 9 -488 14 -14
328 -8 406 8 90 19 198 72 253 125 80 78 122 195 122 345 0 159 -43 269 -137
355 -60 55 -149 102 -238 126 -68 18 -382 31 -403 16z m318 -143 c135 -21 219
-82 273 -197 56 -120 37 -287 -43 -384 -58 -70 -196 -118 -342 -118 l-68 0 0
345 0 346 23 9 c30 12 79 12 157 -1z"/>
<path d="M7737 1977 c-10 -7 -41 -84 -72 -182 -265 -826 -250 -776 -230 -791
23 -17 82 -18 115 -1 19 10 31 33 56 112 l31 100 170 3 c129 2 173 -1 180 -10
6 -7 22 -52 37 -100 29 -97 49 -118 107 -118 53 0 69 9 69 37 0 41 -299 937
-317 951 -22 16 -124 16 -146 -1z m137 -394 c32 -104 61 -196 63 -205 5 -17
-6 -18 -127 -18 -120 0 -131 1 -126 18 15 52 99 332 107 360 6 17 14 32 18 32
3 0 33 -84 65 -187z"/>
<path d="M8447 1975 c-15 -15 -17 -60 -17 -490 0 -459 1 -475 19 -485 25 -13
87 -13 112 0 18 10 19 25 19 397 l0 386 66 -129 c36 -71 78 -151 94 -179 15
-27 43 -79 62 -115 119 -219 183 -328 204 -347 20 -18 37 -23 80 -23 103 0 94
-47 94 500 0 464 -1 480 -19 490 -25 13 -87 13 -112 0 -18 -10 -19 -25 -19
-370 0 -198 -3 -360 -7 -359 -5 0 -29 44 -55 97 -66 136 -310 571 -341 607
-22 26 -32 30 -94 33 -55 3 -73 1 -86 -13z"/>
</g>
</svg>
